<svg width="128" height="21" viewBox="0 0 128 21" fill="none" xmlns="http://www.w3.org/2000/svg">
<path d="M54.3334 20L49.9584 15.8333L50.4834 17.5H39.75C39.1975 17.5 38.6676 17.2805 38.2769 16.8898C37.8862 16.4991 37.6667 15.9692 37.6667 15.4167V2.91668C37.6667 2.36414 37.8862 1.83424 38.2769 1.44354C38.6676 1.05284 39.1975 0.833344 39.75 0.833344H52.25C52.8026 0.833344 53.3325 1.05284 53.7232 1.44354C54.1139 1.83424 54.3334 2.36414 54.3334 2.91668V20ZM46 5.66668C43.7667 5.66668 42.2 6.62501 42.2 6.62501C43.0584 5.85834 44.5584 5.41668 44.5584 5.41668L44.4167 5.27501C43.0084 5.30001 41.7334 6.27501 41.7334 6.27501C40.3 9.26668 40.3917 11.85 40.3917 11.85C41.5584 13.3583 43.2917 13.25 43.2917 13.25L43.8834 12.5C42.8417 12.275 42.1834 11.35 42.1834 11.35C42.1834 11.35 43.75 12.4167 46 12.4167C48.25 12.4167 49.8167 11.35 49.8167 11.35C49.8167 11.35 49.1584 12.275 48.1167 12.5L48.7084 13.25C48.7084 13.25 50.4417 13.3583 51.6084 11.85C51.6084 11.85 51.7 9.26668 50.2667 6.27501C50.2667 6.27501 48.9917 5.30001 47.5834 5.27501L47.4417 5.41668C47.4417 5.41668 48.9417 5.85834 49.8 6.62501C49.8 6.62501 48.2334 5.66668 46 5.66668ZM44.275 8.82501C44.8167 8.82501 45.2584 9.30001 45.25 9.88334C45.25 10.4583 44.8167 10.9417 44.275 10.9417C43.7417 10.9417 43.3084 10.4583 43.3084 9.88334C43.3084 9.30001 43.7334 8.82501 44.275 8.82501ZM47.75 8.82501C48.2917 8.82501 48.725 9.30001 48.725 9.88334C48.725 10.4583 48.2917 10.9417 47.75 10.9417C47.2167 10.9417 46.7834 10.4583 46.7834 9.88334C46.7834 9.30001 47.2084 8.82501 47.75 8.82501Z" fill="white"/>
<path d="M10 1.66666C8.90567 1.66666 7.82204 1.8822 6.81099 2.30099C5.79994 2.71978 4.88129 3.33361 4.10746 4.10743C2.54466 5.67024 1.66669 7.78985 1.66669 9.99999C1.66669 13.6833 4.05835 16.8083 7.36669 17.9167C7.78335 17.9833 7.91669 17.725 7.91669 17.5V16.0917C5.60835 16.5917 5.11669 14.975 5.11669 14.975C4.73335 14.0083 4.19169 13.75 4.19169 13.75C3.43335 13.2333 4.25002 13.25 4.25002 13.25C5.08335 13.3083 5.52502 14.1083 5.52502 14.1083C6.25002 15.375 7.47502 15 7.95002 14.8C8.02502 14.2583 8.24169 13.8917 8.47502 13.6833C6.62502 13.475 4.68335 12.7583 4.68335 9.58332C4.68335 8.65832 5.00002 7.91666 5.54169 7.32499C5.45835 7.11666 5.16669 6.24999 5.62502 5.12499C5.62502 5.12499 6.32502 4.89999 7.91669 5.97499C8.57502 5.79166 9.29169 5.69999 10 5.69999C10.7084 5.69999 11.425 5.79166 12.0834 5.97499C13.675 4.89999 14.375 5.12499 14.375 5.12499C14.8334 6.24999 14.5417 7.11666 14.4584 7.32499C15 7.91666 15.3167 8.65832 15.3167 9.58332C15.3167 12.7667 13.3667 13.4667 11.5084 13.675C11.8084 13.9333 12.0834 14.4417 12.0834 15.2167V17.5C12.0834 17.725 12.2167 17.9917 12.6417 17.9167C15.95 16.8 18.3334 13.6833 18.3334 9.99999C18.3334 8.90564 18.1178 7.82201 17.699 6.81096C17.2802 5.79991 16.6664 4.88125 15.8926 4.10743C15.1188 3.33361 14.2001 2.71978 13.189 2.30099C12.178 1.8822 11.0944 1.66666 10 1.66666Z" fill="white"/>
<path d="M126.717 5.00001C126.075 5.29168 125.383 5.48334 124.667 5.57501C125.4 5.13334 125.967 4.43334 126.233 3.59168C125.542 4.00834 124.775 4.30001 123.967 4.46668C123.308 3.75001 122.383 3.33334 121.333 3.33334C119.375 3.33334 117.775 4.93334 117.775 6.90834C117.775 7.19168 117.808 7.46668 117.867 7.72501C114.9 7.57501 112.258 6.15001 110.5 3.99168C110.192 4.51668 110.017 5.13334 110.017 5.78334C110.017 7.02501 110.642 8.12501 111.608 8.75001C111.017 8.75001 110.467 8.58334 109.983 8.33334V8.35834C109.983 10.0917 111.217 11.5417 112.85 11.8667C112.326 12.0102 111.775 12.0302 111.242 11.925C111.468 12.6354 111.911 13.257 112.509 13.7025C113.107 14.1479 113.83 14.3948 114.575 14.4083C113.311 15.4087 111.745 15.9494 110.133 15.9417C109.85 15.9417 109.567 15.925 109.283 15.8917C110.867 16.9083 112.75 17.5 114.767 17.5C121.333 17.5 124.942 12.05 124.942 7.32501C124.942 7.16668 124.942 7.01668 124.933 6.85834C125.633 6.35834 126.233 5.72501 126.717 5.00001Z" fill="white"/>
<path d="M84.0834 13.8417C84.15 13.9167 84.15 14.075 84.0834 14.1667C83.475 14.75 82.3417 14.8 82 14.8C81.675 14.8 80.5417 14.75 79.95 14.1667C79.8667 14.075 79.8667 13.9167 79.95 13.8417C80.0417 13.7583 80.1834 13.7583 80.2667 13.8417C80.65 14.225 81.4417 14.3333 82 14.3333C82.575 14.3333 83.3834 14.225 83.75 13.8417C83.8417 13.7583 83.9834 13.7583 84.0834 13.8417ZM80.9584 11.8667C80.9584 11.3917 80.5667 11 80.0917 11C79.6167 11 79.225 11.3917 79.225 11.8667C79.225 12.3417 79.6167 12.7417 80.0917 12.7333C80.5667 12.7333 80.9584 12.3417 80.9584 11.8667ZM83.9084 11C83.4334 11 83.0417 11.4167 83.0417 11.875C83.0417 12.3333 83.4334 12.7417 83.9084 12.7417C84.3834 12.7417 84.775 12.3417 84.775 11.875C84.775 11.4167 84.3834 11 83.9084 11ZM90.3334 11C90.3334 15.5833 86.5834 19.3333 82 19.3333C77.4167 19.3333 73.6667 15.5833 73.6667 11C73.6667 6.41666 77.4167 2.66666 82 2.66666C86.5834 2.66666 90.3334 6.41666 90.3334 11ZM87.5584 11C87.5584 10.325 87 9.78332 86.35 9.78332C86.0167 9.78332 85.7167 9.91666 85.5 10.125C84.6667 9.52499 83.525 9.14166 82.25 9.09166L82.8084 6.48332L84.6167 6.87499C84.6334 7.33332 85.0167 7.69999 85.4834 7.69999C85.9584 7.69999 86.35 7.30832 86.35 6.83332C86.35 6.35832 85.9584 5.96666 85.4834 5.96666C85.1417 5.96666 84.8417 6.16666 84.7084 6.45832L82.6834 6.02499C82.625 5.99999 82.5667 6.02499 82.525 6.05832C82.475 6.09166 82.45 6.14166 82.4417 6.19999L81.825 9.09999C80.5334 9.14166 79.3667 9.52499 78.5167 10.1333C78.3 9.92499 78 9.79999 77.675 9.79999C77 9.79999 76.4584 10.3417 76.4584 11C76.4584 11.5083 76.7584 11.925 77.175 12.1167C77.1584 12.25 77.15 12.35 77.15 12.4833C77.15 14.3333 79.325 15.875 82 15.875C84.6917 15.875 86.875 14.3583 86.875 12.4833C86.875 12.3667 86.8667 12.25 86.8417 12.1167C87.2584 11.925 87.5584 11.5 87.5584 11Z" fill="white"/>
</svg>
