<svg width="61" height="13" viewBox="0 0 61 13" fill="none" xmlns="http://www.w3.org/2000/svg">
<path d="M1.208 11.468C0.888 11.468 0.648 11.38 0.488 11.204C0.328 11.028 0.248 10.848 0.248 10.664C0.248 10.448 0.288 10.284 0.368 10.172C0.448 10.06 0.604 9.976 0.836 9.92C1.14 9.856 1.456 9.776 1.784 9.68C2.12 9.584 2.44 9.484 2.744 9.38C3.056 9.268 3.328 9.156 3.56 9.044C3.792 8.924 3.96 8.812 4.064 8.708C3.936 8.636 3.732 8.552 3.452 8.456C3.172 8.352 2.86 8.232 2.516 8.096C2.18 7.952 1.856 7.784 1.544 7.592C1.232 7.4 0.976 7.176 0.776 6.92C0.576 6.664 0.476 6.372 0.476 6.044C0.476 5.588 0.592 5.16 0.824 4.76C1.056 4.36 1.364 3.988 1.748 3.644C2.132 3.3 2.548 2.984 2.996 2.696C3.452 2.408 3.904 2.148 4.352 1.916C4.808 1.676 5.216 1.464 5.576 1.28C5.712 1.2 5.84 1.148 5.96 1.124C6.088 1.092 6.204 1.076 6.308 1.076C6.668 1.076 6.916 1.164 7.052 1.34C7.188 1.516 7.256 1.696 7.256 1.88C7.256 2.008 7.196 2.16 7.076 2.336C6.956 2.504 6.764 2.66 6.5 2.804C6.244 2.948 5.904 3.052 5.48 3.116C5.408 3.124 5.344 3.132 5.288 3.14C4.968 3.3 4.624 3.492 4.256 3.716C3.888 3.94 3.54 4.176 3.212 4.424C2.892 4.664 2.628 4.904 2.42 5.144C2.212 5.384 2.108 5.6 2.108 5.792C2.108 6.008 2.196 6.204 2.372 6.38C2.548 6.548 2.772 6.704 3.044 6.848C3.324 6.984 3.616 7.116 3.92 7.244C4.232 7.372 4.524 7.504 4.796 7.64C5.076 7.768 5.304 7.912 5.48 8.072C5.656 8.232 5.744 8.412 5.744 8.612C5.744 8.884 5.652 9.144 5.468 9.392C5.284 9.64 5.044 9.872 4.748 10.088C4.452 10.296 4.128 10.484 3.776 10.652C3.424 10.82 3.076 10.964 2.732 11.084C2.396 11.212 2.092 11.308 1.82 11.372C1.548 11.436 1.344 11.468 1.208 11.468ZM11.6117 11.096C11.3957 11.096 11.1597 11.044 10.9037 10.94C10.6557 10.828 10.4197 10.64 10.1957 10.376C9.97172 10.112 9.78772 9.748 9.64372 9.284C9.49972 8.82 9.42772 8.232 9.42772 7.52C9.42772 6.992 9.49572 6.456 9.63172 5.912C9.77572 5.36 9.99972 4.84 10.3037 4.352C10.6077 3.864 10.9997 3.44 11.4797 3.08C11.9677 2.72 12.5517 2.468 13.2317 2.324C13.5117 2.26 13.8317 2.2 14.1917 2.144C14.5597 2.08 14.9317 2.024 15.3077 1.976C15.6837 1.92 16.0397 1.876 16.3757 1.844C16.7197 1.812 17.0077 1.796 17.2397 1.796C17.6237 1.796 17.9117 1.848 18.1037 1.952C18.2957 2.056 18.4237 2.176 18.4877 2.312C18.5517 2.44 18.5837 2.556 18.5837 2.66C18.5837 2.788 18.5437 2.916 18.4637 3.044C18.3917 3.172 18.1917 3.256 17.8637 3.296C17.7917 3.304 17.6397 3.324 17.4077 3.356C17.1757 3.38 16.8957 3.416 16.5677 3.464C16.2477 3.512 15.9077 3.564 15.5477 3.62C15.1957 3.668 14.8517 3.72 14.5157 3.776C14.1877 3.824 13.9037 3.868 13.6637 3.908C13.1357 4.004 12.7077 4.164 12.3797 4.388C12.0517 4.604 11.7957 4.86 11.6117 5.156C11.4357 5.452 11.3077 5.764 11.2277 6.092C11.5477 6.02 11.8797 5.948 12.2237 5.876C12.5677 5.804 12.8917 5.74 13.1957 5.684C13.5077 5.628 13.7757 5.584 13.9997 5.552C14.2237 5.52 14.3757 5.504 14.4557 5.504C14.7677 5.504 14.9557 5.544 15.0197 5.624C15.0917 5.704 15.1277 5.828 15.1277 5.996C15.1277 6.148 14.9917 6.324 14.7197 6.524C14.4477 6.716 14.0157 6.912 13.4237 7.112C12.8317 7.312 12.0557 7.488 11.0957 7.64C11.0957 7.648 11.0957 7.652 11.0957 7.652C11.0797 7.812 11.0677 7.996 11.0597 8.204C11.0517 8.404 11.0477 8.604 11.0477 8.804C11.0477 9.004 11.0597 9.168 11.0837 9.296C11.1077 9.424 11.1517 9.488 11.2157 9.488C11.3917 9.488 11.6357 9.452 11.9477 9.38C12.2597 9.308 12.5877 9.22 12.9317 9.116C13.2757 9.012 13.5957 8.912 13.8917 8.816C14.1877 8.712 14.4037 8.632 14.5397 8.576C14.7397 8.496 14.9397 8.416 15.1397 8.336C15.3477 8.256 15.5117 8.216 15.6317 8.216C15.7517 8.216 15.8557 8.264 15.9437 8.36C16.0317 8.448 16.0597 8.584 16.0277 8.768C16.0197 8.848 15.9357 8.98 15.7757 9.164C15.6237 9.34 15.4117 9.54 15.1397 9.764C14.8757 9.98 14.5597 10.192 14.1917 10.4C13.8317 10.6 13.4317 10.768 12.9917 10.904C12.5597 11.032 12.0997 11.096 11.6117 11.096ZM21.0052 10.94C20.7092 10.94 20.4892 10.824 20.3452 10.592C20.2012 10.352 20.1292 9.92 20.1292 9.296C20.1292 8.496 20.2012 7.708 20.3452 6.932C20.4972 6.156 20.7092 5.428 20.9812 4.748C21.2612 4.068 21.5972 3.472 21.9892 2.96C22.3892 2.44 22.8412 2.036 23.3452 1.748C23.8492 1.452 24.3972 1.304 24.9892 1.304C25.8692 1.304 26.5212 1.54 26.9452 2.012C27.3772 2.476 27.5932 3.16 27.5932 4.064C27.5932 4.544 27.4972 4.972 27.3052 5.348C27.1132 5.716 26.8612 6.008 26.5492 6.224C26.2452 6.432 25.9172 6.536 25.5652 6.536C25.3652 6.536 25.1532 6.5 24.9292 6.428C25.3612 6.988 25.7932 7.476 26.2252 7.892C26.6652 8.308 27.1012 8.692 27.5332 9.044C27.9732 9.388 28.4132 9.74 28.8532 10.1C29.0852 10.284 29.2172 10.48 29.2492 10.688C29.2812 10.896 29.2252 11.072 29.0812 11.216C28.9452 11.368 28.7332 11.444 28.4452 11.444C28.2212 11.444 27.9372 11.344 27.5932 11.144C27.2492 10.952 26.8772 10.692 26.4772 10.364C26.0772 10.028 25.6772 9.656 25.2772 9.248C24.8852 8.84 24.5252 8.424 24.1972 8C23.8772 7.576 23.6172 7.172 23.4172 6.788C23.2252 6.404 23.1292 6.076 23.1292 5.804C23.1292 5.548 23.1972 5.352 23.3332 5.216C23.4692 5.072 23.6452 5 23.8612 5C24.0372 5 24.1972 5.024 24.3412 5.072C24.4932 5.12 24.6532 5.144 24.8212 5.144C24.9972 5.144 25.1812 5.096 25.3732 5C25.5732 4.904 25.7412 4.756 25.8772 4.556C26.0132 4.348 26.0812 4.084 26.0812 3.764C26.0812 3.412 25.9812 3.176 25.7812 3.056C25.5892 2.936 25.3292 2.876 25.0012 2.876C24.5452 2.876 24.1332 3.036 23.7652 3.356C23.3972 3.676 23.0772 4.128 22.8052 4.712C22.5332 5.296 22.3132 5.984 22.1452 6.776C21.9852 7.568 21.8772 8.432 21.8212 9.368C21.7892 9.976 21.7092 10.392 21.5812 10.616C21.4532 10.832 21.2612 10.94 21.0052 10.94ZM34.568 12.044C34.344 12.044 34.12 11.904 33.896 11.624C33.68 11.344 33.48 10.9 33.296 10.292C33.112 9.684 32.964 8.892 32.852 7.916C32.748 6.932 32.696 5.736 32.696 4.328C32.696 3.544 32.732 2.932 32.804 2.492C32.876 2.044 32.972 1.716 33.092 1.508C33.22 1.3 33.364 1.168 33.524 1.112C33.684 1.056 33.848 1.028 34.016 1.028C34.232 1.028 34.416 1.108 34.568 1.268C34.728 1.428 34.808 1.648 34.808 1.928C34.808 2.176 34.724 2.484 34.556 2.852C34.508 3.244 34.476 3.596 34.46 3.908C34.452 4.212 34.448 4.536 34.448 4.88C34.448 5.424 34.456 5.98 34.472 6.548C34.496 7.108 34.528 7.648 34.568 8.168C34.608 8.68 34.652 9.136 34.7 9.536C34.9 9.048 35.124 8.508 35.372 7.916C35.62 7.324 35.868 6.728 36.116 6.128C36.372 5.528 36.612 4.964 36.836 4.436C37.068 3.9 37.264 3.444 37.424 3.068C37.592 2.692 37.704 2.436 37.76 2.3C37.96 1.82 38.176 1.476 38.408 1.268C38.64 1.06 38.876 0.956 39.116 0.956C39.308 0.956 39.472 1.016 39.608 1.136C39.744 1.256 39.812 1.484 39.812 1.82C39.812 1.884 39.748 2.072 39.62 2.384C39.5 2.696 39.332 3.096 39.116 3.584C38.908 4.064 38.672 4.6 38.408 5.192C38.152 5.776 37.888 6.38 37.616 7.004C37.32 7.684 37.024 8.328 36.728 8.936C36.44 9.544 36.16 10.08 35.888 10.544C35.624 11.008 35.376 11.372 35.144 11.636C34.92 11.908 34.728 12.044 34.568 12.044ZM43.7893 4.592C43.4053 4.592 43.1333 4.552 42.9733 4.472C42.8133 4.392 42.7173 4.296 42.6853 4.184C42.6533 4.072 42.6373 3.976 42.6373 3.896C42.6373 3.888 42.6373 3.884 42.6373 3.884C42.6373 3.708 42.7173 3.54 42.8773 3.38C43.0373 3.212 43.2613 3.096 43.5493 3.032C43.7893 2.984 44.0733 2.936 44.4013 2.888C44.7373 2.832 45.0893 2.784 45.4573 2.744C45.8333 2.696 46.1933 2.66 46.5373 2.636C46.8813 2.612 47.1853 2.6 47.4493 2.6C47.8013 2.6 48.0733 2.652 48.2653 2.756C48.4573 2.852 48.5893 2.964 48.6613 3.092C48.7413 3.22 48.7813 3.328 48.7813 3.416C48.7813 3.496 48.7613 3.576 48.7213 3.656C48.6813 3.736 48.5813 3.816 48.4213 3.896C48.2693 3.976 48.0253 4.052 47.6893 4.124C47.3533 4.196 46.8893 4.264 46.2973 4.328C46.2413 4.336 46.1813 4.344 46.1173 4.352C46.0613 4.696 45.9933 5.108 45.9133 5.588C45.8333 6.06 45.7453 6.556 45.6493 7.076C45.5613 7.588 45.4733 8.08 45.3853 8.552C45.3053 9.016 45.2333 9.412 45.1693 9.74C45.4973 9.708 45.7853 9.684 46.0333 9.668C46.2893 9.652 46.4613 9.644 46.5493 9.644C46.8293 9.644 47.0213 9.704 47.1253 9.824C47.2293 9.936 47.2813 10.084 47.2813 10.268C47.2813 10.34 47.1533 10.452 46.8973 10.604C46.6413 10.756 46.2853 10.92 45.8293 11.096C45.3813 11.272 44.8653 11.428 44.2813 11.564C43.8973 11.652 43.5173 11.72 43.1413 11.768C42.7653 11.816 42.4933 11.84 42.3253 11.84C41.9973 11.84 41.7853 11.78 41.6893 11.66C41.6013 11.54 41.5573 11.388 41.5573 11.204C41.5573 11.044 41.6053 10.88 41.7013 10.712C41.8053 10.544 41.9493 10.424 42.1333 10.352C42.3253 10.28 42.5373 10.212 42.7693 10.148C43.0013 10.084 43.2413 10.028 43.4893 9.98C43.5053 9.772 43.5373 9.496 43.5853 9.152C43.6333 8.808 43.6853 8.432 43.7413 8.024C43.8053 7.608 43.8693 7.188 43.9333 6.764C44.0053 6.332 44.0733 5.928 44.1373 5.552C44.2093 5.168 44.2693 4.836 44.3173 4.556C44.0853 4.58 43.9093 4.592 43.7893 4.592ZM51.6904 3.692C51.3064 3.692 51.0224 3.656 50.8384 3.584C50.6624 3.504 50.5464 3.412 50.4904 3.308C50.4424 3.196 50.4184 3.096 50.4184 3.008C50.4184 2.896 50.4824 2.768 50.6104 2.624C50.7384 2.472 50.9864 2.36 51.3544 2.288C51.7224 2.208 52.1584 2.136 52.6624 2.072C53.1664 2 53.7024 1.94 54.2704 1.892C54.8384 1.836 55.4144 1.788 55.9984 1.748C56.5824 1.708 57.1384 1.68 57.6664 1.664C58.1944 1.64 58.6624 1.628 59.0704 1.628C59.4944 1.628 59.8224 1.652 60.0544 1.7C60.2864 1.748 60.4504 1.808 60.5464 1.88C60.6504 1.952 60.7104 2.028 60.7264 2.108C60.7504 2.188 60.7624 2.264 60.7624 2.336C60.7624 2.352 60.7624 2.364 60.7624 2.372C60.7624 2.468 60.7384 2.572 60.6904 2.684C60.6504 2.796 60.5584 2.892 60.4144 2.972C60.2704 3.044 60.0544 3.08 59.7664 3.08C59.6624 3.08 59.4304 3.096 59.0704 3.128C58.7104 3.16 58.2704 3.2 57.7504 3.248C57.2304 3.296 56.6784 3.344 56.0944 3.392C56.0064 3.752 55.9064 4.172 55.7944 4.652C55.6904 5.132 55.5824 5.636 55.4704 6.164C55.3664 6.692 55.2664 7.212 55.1704 7.724C55.0744 8.228 54.9944 8.696 54.9304 9.128C54.8664 9.552 54.8224 9.9 54.7984 10.172C54.7664 10.54 54.6584 10.8 54.4744 10.952C54.2984 11.096 54.1224 11.168 53.9464 11.168C53.8184 11.168 53.6904 11.14 53.5624 11.084C53.4344 11.036 53.3304 10.928 53.2504 10.76C53.1704 10.584 53.1304 10.324 53.1304 9.98C53.1304 9.628 53.1624 9.196 53.2264 8.684C53.2904 8.164 53.3744 7.608 53.4784 7.016C53.5904 6.424 53.7144 5.828 53.8504 5.228C53.9944 4.628 54.1424 4.068 54.2944 3.548C53.7584 3.588 53.2624 3.624 52.8064 3.656C52.3504 3.68 51.9784 3.692 51.6904 3.692Z" fill="white"/>
</svg>
